<svg xmlns="http://www.w3.org/2000/svg" xmlns:xlink="http://www.w3.org/1999/xlink" width="500" zoomAndPan="magnify" viewBox="0 0 375 187.499995" height="250" preserveAspectRatio="xMidYMid meet" version="1.2"><defs/><g id="5c72450268"><path style=" stroke:none;fill-rule:nonzero;fill:#000000;fill-opacity:1;" d="M 11.382812 86.875 C 54 106.363281 133.167969 85.957031 212.085938 77.691406 C 265.558594 72.089844 280.675781 129.65625 307.207031 88.550781 C 308.042969 87.257812 309.167969 88.28125 308.449219 89.414062 C 281.859375 131.203125 265.179688 74.511719 211.730469 79.269531 C 129.429688 86.597656 60.636719 109.984375 9.429688 89.847656 C 5.859375 88.445312 8.375 85.5 11.382812 86.875 Z M 11.382812 86.875 "/><g style="fill:#000000;fill-opacity:1;"><g transform="translate(308.21877, 105.350367)"><path style="stroke:none" d="M -2.359375 5.546875 C -2.128906 3.640625 -1.898438 1.300781 -1.671875 -1.46875 C -1.453125 -4.25 -1.160156 -7.679688 -0.796875 -11.765625 C -0.429688 -15.859375 -0.0234375 -20.796875 0.421875 -26.578125 C 0.535156 -28.035156 0.941406 -29.15625 1.640625 -29.9375 C 2.335938 -30.71875 3.117188 -31.191406 3.984375 -31.359375 C 4.859375 -31.535156 5.585938 -31.382812 6.171875 -30.90625 C 6.765625 -30.425781 7.003906 -29.679688 6.890625 -28.671875 C 6.722656 -27.441406 6.5 -25.675781 6.21875 -23.375 C 5.9375 -21.082031 5.640625 -18.488281 5.328125 -15.59375 C 5.023438 -12.707031 4.707031 -9.738281 4.375 -6.6875 C 4.039062 -3.632812 3.734375 -0.734375 3.453125 2.015625 C 4.796875 1.285156 6.5625 0.179688 8.75 -1.296875 C 10.9375 -2.785156 13.316406 -4.523438 15.890625 -6.515625 C 18.472656 -8.503906 21.023438 -10.632812 23.546875 -12.90625 C 26.066406 -15.175781 28.335938 -17.460938 30.359375 -19.765625 C 30.472656 -19.929688 30.765625 -20.015625 31.234375 -20.015625 C 31.710938 -20.015625 31.953125 -19.898438 31.953125 -19.671875 C 29.597656 -16.867188 27.019531 -14.191406 24.21875 -11.640625 C 21.414062 -9.097656 18.625 -6.785156 15.84375 -4.703125 C 13.070312 -2.628906 10.578125 -0.878906 8.359375 0.546875 C 6.148438 1.972656 4.457031 2.992188 3.28125 3.609375 C 2.769531 8.148438 2.207031 12.800781 1.59375 17.5625 C 0.976562 22.332031 0.238281 26.914062 -0.625 31.3125 C -1.5 35.71875 -2.550781 39.644531 -3.78125 43.09375 C -5.019531 46.539062 -6.460938 49.242188 -8.109375 51.203125 C -9.765625 53.171875 -11.6875 54.097656 -13.875 53.984375 C -15.382812 53.867188 -16.710938 53.066406 -17.859375 51.578125 C -19.015625 50.097656 -19.84375 48.082031 -20.34375 45.53125 C -20.851562 42.976562 -20.953125 40.09375 -20.640625 36.875 C -20.335938 33.65625 -19.507812 30.25 -18.15625 26.65625 C -16.8125 23.070312 -14.847656 19.46875 -12.265625 15.84375 C -9.691406 12.226562 -6.390625 8.796875 -2.359375 5.546875 Z M -2.4375 7.40625 C -6.75 11.101562 -10.140625 15.023438 -12.609375 19.171875 C -15.078125 23.316406 -16.800781 27.363281 -17.78125 31.3125 C -18.757812 35.269531 -19.164062 38.859375 -19 42.078125 C -18.832031 45.304688 -18.257812 47.875 -17.28125 49.78125 C -16.300781 51.6875 -15.082031 52.640625 -13.625 52.640625 C -12.28125 52.640625 -11.101562 51.6875 -10.09375 49.78125 C -9.082031 47.875 -8.179688 45.304688 -7.390625 42.078125 C -6.609375 38.859375 -5.921875 35.269531 -5.328125 31.3125 C -4.742188 27.363281 -4.210938 23.316406 -3.734375 19.171875 C -3.265625 15.023438 -2.832031 11.101562 -2.4375 7.40625 Z M 5.21875 -35.65625 C 4.488281 -35.65625 3.984375 -36.019531 3.703125 -36.75 C 3.421875 -37.476562 3.363281 -38.289062 3.53125 -39.1875 C 3.695312 -40.082031 4.046875 -40.878906 4.578125 -41.578125 C 5.109375 -42.285156 5.796875 -42.582031 6.640625 -42.46875 C 7.203125 -42.300781 7.550781 -41.863281 7.6875 -41.15625 C 7.832031 -40.457031 7.820312 -39.671875 7.65625 -38.796875 C 7.488281 -37.929688 7.191406 -37.191406 6.765625 -36.578125 C 6.347656 -35.960938 5.832031 -35.65625 5.21875 -35.65625 Z M 5.21875 -35.65625 "/></g></g><g style="fill:#000000;fill-opacity:1;"><g transform="translate(338.239311, 105.350367)"><path style="stroke:none" d="M 11.609375 10.765625 C 9.421875 12.390625 7.484375 13.203125 5.796875 13.203125 C 4.453125 13.203125 3.359375 12.738281 2.515625 11.8125 C 1.679688 10.882812 1.023438 9.691406 0.546875 8.234375 C 0.0664062 6.785156 -0.28125 5.242188 -0.5 3.609375 C -0.726562 1.984375 -0.867188 0.457031 -0.921875 -0.96875 C -0.984375 -2.394531 -1.015625 -3.53125 -1.015625 -4.375 C -1.066406 -8.019531 -0.953125 -11.941406 -0.671875 -16.140625 C -0.390625 -20.347656 0.0820312 -24.582031 0.75 -28.84375 C 1.59375 -34.113281 2.6875 -39.226562 4.03125 -44.1875 C 5.382812 -49.15625 6.96875 -53.628906 8.78125 -57.609375 C 10.601562 -61.585938 12.632812 -64.738281 14.875 -67.0625 C 17.125 -69.394531 19.535156 -70.5625 22.109375 -70.5625 C 23.796875 -70.5625 25.195312 -69.914062 26.3125 -68.625 C 27.4375 -67.332031 28.039062 -65.410156 28.125 -62.859375 C 28.207031 -60.304688 27.578125 -57.125 26.234375 -53.3125 C 24.890625 -49.5 22.617188 -45.097656 19.421875 -40.109375 C 16.222656 -35.117188 11.878906 -29.539062 6.390625 -23.375 C 5.992188 -21.632812 5.5 -19.140625 4.90625 -15.890625 C 4.320312 -12.640625 3.863281 -9.273438 3.53125 -5.796875 C 3.414062 -4.847656 3.285156 -3.519531 3.140625 -1.8125 C 3.003906 -0.101562 2.960938 1.6875 3.015625 3.5625 C 3.078125 5.445312 3.316406 7.101562 3.734375 8.53125 C 4.160156 9.96875 4.878906 10.921875 5.890625 11.390625 C 6.898438 11.867188 8.300781 11.519531 10.09375 10.34375 C 11.550781 9.382812 13.144531 7.882812 14.875 5.84375 C 16.613281 3.800781 18.394531 1.519531 20.21875 -1 C 22.039062 -3.53125 23.789062 -6.070312 25.46875 -8.625 C 27.15625 -11.175781 28.65625 -13.457031 29.96875 -15.46875 C 31.289062 -17.488281 32.316406 -18.945312 33.046875 -19.84375 C 33.210938 -20.007812 33.492188 -20.09375 33.890625 -20.09375 C 34.285156 -20.09375 34.484375 -19.984375 34.484375 -19.765625 C 33.523438 -18.523438 32.375 -16.878906 31.03125 -14.828125 C 29.6875 -12.785156 28.210938 -10.53125 26.609375 -8.0625 C 25.015625 -5.601562 23.347656 -3.140625 21.609375 -0.671875 C 19.867188 1.796875 18.144531 4.035156 16.4375 6.046875 C 14.726562 8.066406 13.117188 9.640625 11.609375 10.765625 Z M 6.640625 -25.5625 C 11.691406 -31.5625 15.6875 -36.941406 18.625 -41.703125 C 21.570312 -46.472656 23.675781 -50.609375 24.9375 -54.109375 C 26.195312 -57.617188 26.796875 -60.519531 26.734375 -62.8125 C 26.679688 -65.113281 26.191406 -66.796875 25.265625 -67.859375 C 24.335938 -68.929688 23.148438 -69.410156 21.703125 -69.296875 C 20.460938 -69.128906 19.222656 -68.117188 17.984375 -66.265625 C 16.753906 -64.410156 15.550781 -62 14.375 -59.03125 C 13.195312 -56.0625 12.101562 -52.710938 11.09375 -48.984375 C 10.09375 -45.253906 9.210938 -41.367188 8.453125 -37.328125 C 7.691406 -33.296875 7.085938 -29.375 6.640625 -25.5625 Z M 6.640625 -25.5625 "/></g></g><g style="fill:#000000;fill-opacity:1;"><g transform="translate(47.480842, 128.126848)"><path style="stroke:none" d="M -1.375 2.078125 C -1.632812 2.078125 -1.835938 2.050781 -1.984375 2 C -2.128906 1.945312 -2.203125 1.816406 -2.203125 1.609375 C -2.203125 1.398438 -2.101562 1.191406 -1.90625 0.984375 C -1.71875 0.773438 -1.453125 0.671875 -1.109375 0.671875 C -0.878906 0.671875 -0.632812 0.695312 -0.375 0.75 C -0.113281 0.800781 0.285156 0.882812 0.828125 1 C 0.941406 0.925781 1.054688 0.816406 1.171875 0.671875 C 1.285156 0.535156 1.382812 0.316406 1.46875 0.015625 C 1.550781 -0.285156 1.59375 -0.710938 1.59375 -1.265625 L 1.59375 -9.921875 C 1.59375 -10.546875 1.546875 -11.003906 1.453125 -11.296875 C 1.367188 -11.585938 1.1875 -11.78125 0.90625 -11.875 L 0.90625 -12.125 L 4.109375 -12.125 L 4.109375 -11.875 C 3.816406 -11.78125 3.625 -11.585938 3.53125 -11.296875 C 3.445312 -11.003906 3.40625 -10.546875 3.40625 -9.921875 L 3.40625 -4.203125 C 3.40625 -3.296875 3.273438 -2.457031 3.015625 -1.6875 C 2.753906 -0.925781 2.398438 -0.265625 1.953125 0.296875 C 1.503906 0.859375 0.992188 1.296875 0.421875 1.609375 C -0.148438 1.921875 -0.75 2.078125 -1.375 2.078125 Z M -1.375 2.078125 "/></g></g><g style="fill:#000000;fill-opacity:1;"><g transform="translate(56.846214, 128.126848)"><path style="stroke:none" d="M -0.359375 0 L -0.359375 -0.25 C -0.0976562 -0.332031 0.148438 -0.503906 0.390625 -0.765625 C 0.628906 -1.035156 0.863281 -1.460938 1.09375 -2.046875 L 4.328125 -10.078125 C 4.453125 -10.398438 4.441406 -10.710938 4.296875 -11.015625 L 4.0625 -11.5 L 5.765625 -12.25 L 10.0625 -2.03125 C 10.300781 -1.457031 10.53125 -1.035156 10.75 -0.765625 C 10.976562 -0.503906 11.191406 -0.332031 11.390625 -0.25 L 11.390625 0 L 8.234375 0 L 8.234375 -0.25 C 8.523438 -0.332031 8.632812 -0.503906 8.5625 -0.765625 C 8.488281 -1.035156 8.328125 -1.457031 8.078125 -2.03125 L 7.046875 -4.515625 L 2.421875 -4.515625 L 1.421875 -2.046875 C 1.191406 -1.460938 1.097656 -1.03125 1.140625 -0.75 C 1.191406 -0.476562 1.359375 -0.3125 1.640625 -0.25 L 1.640625 0 Z M 2.53125 -4.796875 L 6.921875 -4.796875 L 4.6875 -10.140625 Z M 2.53125 -4.796875 "/></g></g><g style="fill:#000000;fill-opacity:1;"><g transform="translate(72.424851, 128.126848)"><path style="stroke:none" d="M 4.953125 0.171875 C 4.066406 0.171875 3.238281 0.046875 2.46875 -0.203125 C 1.707031 -0.453125 1.109375 -0.738281 0.671875 -1.0625 L 0.609375 -3.65625 L 0.828125 -3.6875 C 1.066406 -3.03125 1.394531 -2.4375 1.8125 -1.90625 C 2.238281 -1.382812 2.753906 -0.96875 3.359375 -0.65625 C 3.960938 -0.34375 4.644531 -0.1875 5.40625 -0.1875 C 5.800781 -0.1875 6.171875 -0.269531 6.515625 -0.4375 C 6.867188 -0.601562 7.15625 -0.847656 7.375 -1.171875 C 7.59375 -1.492188 7.703125 -1.894531 7.703125 -2.375 C 7.703125 -2.800781 7.582031 -3.171875 7.34375 -3.484375 C 7.101562 -3.804688 6.796875 -4.082031 6.421875 -4.3125 C 6.046875 -4.550781 5.648438 -4.757812 5.234375 -4.9375 C 4.816406 -5.125 4.429688 -5.285156 4.078125 -5.421875 C 3.492188 -5.671875 2.953125 -5.921875 2.453125 -6.171875 C 1.960938 -6.429688 1.566406 -6.757812 1.265625 -7.15625 C 0.960938 -7.550781 0.8125 -8.085938 0.8125 -8.765625 C 0.8125 -9.835938 1.210938 -10.679688 2.015625 -11.296875 C 2.816406 -11.921875 3.898438 -12.234375 5.265625 -12.234375 C 5.910156 -12.234375 6.507812 -12.171875 7.0625 -12.046875 C 7.625 -11.921875 8.132812 -11.742188 8.59375 -11.515625 L 8.65625 -9.265625 L 8.46875 -9.1875 C 8.101562 -10.082031 7.578125 -10.765625 6.890625 -11.234375 C 6.210938 -11.710938 5.453125 -11.953125 4.609375 -11.953125 C 3.910156 -11.953125 3.320312 -11.753906 2.84375 -11.359375 C 2.363281 -10.972656 2.125 -10.441406 2.125 -9.765625 C 2.125 -9.378906 2.21875 -9.046875 2.40625 -8.765625 C 2.601562 -8.484375 2.859375 -8.238281 3.171875 -8.03125 C 3.492188 -7.820312 3.835938 -7.640625 4.203125 -7.484375 C 4.566406 -7.328125 4.921875 -7.179688 5.265625 -7.046875 C 5.703125 -6.867188 6.144531 -6.679688 6.59375 -6.484375 C 7.050781 -6.296875 7.472656 -6.066406 7.859375 -5.796875 C 8.242188 -5.535156 8.550781 -5.21875 8.78125 -4.84375 C 9.007812 -4.476562 9.125 -4.035156 9.125 -3.515625 C 9.125 -2.921875 9 -2.394531 8.75 -1.9375 C 8.507812 -1.476562 8.1875 -1.09375 7.78125 -0.78125 C 7.382812 -0.46875 6.9375 -0.226562 6.4375 -0.0625 C 5.945312 0.09375 5.453125 0.171875 4.953125 0.171875 Z M 4.953125 0.171875 "/></g></g><g style="fill:#000000;fill-opacity:1;"><g transform="translate(86.445843, 128.126848)"><path style="stroke:none" d="M 0.734375 0 L 0.734375 -0.25 C 1.015625 -0.332031 1.195312 -0.519531 1.28125 -0.8125 C 1.375 -1.113281 1.421875 -1.578125 1.421875 -2.203125 L 1.421875 -8.875 C 1.421875 -9.582031 1.375 -10.140625 1.28125 -10.546875 C 1.195312 -10.953125 1.066406 -11.25 0.890625 -11.4375 C 0.722656 -11.632812 0.507812 -11.78125 0.25 -11.875 L 0.25 -12.125 L 2.84375 -12.125 L 7.109375 -5.015625 L 11.1875 -12.125 L 13.640625 -12.125 L 13.640625 -11.875 C 13.378906 -11.78125 13.160156 -11.632812 12.984375 -11.4375 C 12.804688 -11.25 12.675781 -10.953125 12.59375 -10.546875 C 12.507812 -10.140625 12.46875 -9.582031 12.46875 -8.875 L 12.46875 -2.203125 C 12.46875 -1.578125 12.507812 -1.113281 12.59375 -0.8125 C 12.675781 -0.519531 12.863281 -0.332031 13.15625 -0.25 L 13.15625 0 L 9.9375 0 L 9.9375 -0.25 C 10.226562 -0.332031 10.414062 -0.519531 10.5 -0.8125 C 10.582031 -1.113281 10.625 -1.578125 10.625 -2.203125 L 10.625 -10.578125 L 6.46875 -3.296875 L 6.078125 -3.296875 L 1.734375 -10.421875 L 1.734375 -3.234375 C 1.734375 -2.535156 1.78125 -1.984375 1.875 -1.578125 C 1.96875 -1.171875 2.109375 -0.867188 2.296875 -0.671875 C 2.492188 -0.472656 2.742188 -0.332031 3.046875 -0.25 L 3.046875 0 Z M 0.734375 0 "/></g></g><g style="fill:#000000;fill-opacity:1;"><g transform="translate(105.347449, 128.126848)"><path style="stroke:none" d="M 0.8125 0 L 0.8125 -0.25 C 1.101562 -0.332031 1.289062 -0.519531 1.375 -0.8125 C 1.457031 -1.113281 1.5 -1.578125 1.5 -2.203125 L 1.5 -9.921875 C 1.5 -10.546875 1.457031 -11.003906 1.375 -11.296875 C 1.289062 -11.585938 1.101562 -11.78125 0.8125 -11.875 L 0.8125 -12.125 L 4.03125 -12.125 L 4.03125 -11.875 C 3.738281 -11.78125 3.550781 -11.585938 3.46875 -11.296875 C 3.382812 -11.003906 3.34375 -10.546875 3.34375 -9.921875 L 3.34375 -2.203125 C 3.34375 -1.578125 3.382812 -1.113281 3.46875 -0.8125 C 3.550781 -0.519531 3.738281 -0.332031 4.03125 -0.25 L 4.03125 0 Z M 0.8125 0 "/></g></g><g style="fill:#000000;fill-opacity:1;"><g transform="translate(114.643595, 128.126848)"><path style="stroke:none" d="M 9.9375 0.140625 L 1.8125 -10.109375 L 1.8125 -3.234375 C 1.8125 -2.535156 1.859375 -1.984375 1.953125 -1.578125 C 2.046875 -1.171875 2.191406 -0.867188 2.390625 -0.671875 C 2.585938 -0.472656 2.835938 -0.332031 3.140625 -0.25 L 3.140625 0 L 0.8125 0 L 0.8125 -0.25 C 1.101562 -0.332031 1.289062 -0.519531 1.375 -0.8125 C 1.457031 -1.113281 1.5 -1.578125 1.5 -2.203125 L 1.5 -9.921875 C 1.5 -10.546875 1.441406 -11.003906 1.328125 -11.296875 C 1.210938 -11.585938 0.972656 -11.78125 0.609375 -11.875 L 0.609375 -12.125 L 2.5625 -12.125 L 9.828125 -3.015625 L 9.828125 -8.875 C 9.828125 -9.582031 9.78125 -10.140625 9.6875 -10.546875 C 9.601562 -10.953125 9.460938 -11.25 9.265625 -11.4375 C 9.066406 -11.632812 8.816406 -11.78125 8.515625 -11.875 L 8.515625 -12.125 L 10.859375 -12.125 L 10.859375 -11.875 C 10.566406 -11.78125 10.375 -11.585938 10.28125 -11.296875 C 10.195312 -11.003906 10.15625 -10.546875 10.15625 -9.921875 L 10.15625 0.140625 Z M 9.9375 0.140625 "/></g></g><g style="fill:#000000;fill-opacity:1;"><g transform="translate(130.551073, 128.126848)"><path style="stroke:none" d="M 0.8125 0 L 0.8125 -0.25 C 1.101562 -0.332031 1.289062 -0.519531 1.375 -0.8125 C 1.457031 -1.113281 1.5 -1.578125 1.5 -2.203125 L 1.5 -9.921875 C 1.5 -10.546875 1.457031 -11.003906 1.375 -11.296875 C 1.289062 -11.585938 1.101562 -11.78125 0.8125 -11.875 L 0.8125 -12.125 L 9.125 -12.125 L 9.3125 -9.671875 L 9.09375 -9.625 C 8.738281 -10.476562 8.269531 -11.0625 7.6875 -11.375 C 7.113281 -11.6875 6.335938 -11.84375 5.359375 -11.84375 L 3.34375 -11.84375 L 3.34375 -6.640625 L 5 -6.640625 C 5.707031 -6.640625 6.257812 -6.6875 6.65625 -6.78125 C 7.0625 -6.875 7.363281 -7.019531 7.5625 -7.21875 C 7.757812 -7.414062 7.90625 -7.664062 8 -7.96875 L 8.234375 -7.96875 L 8.234375 -5.0625 L 8 -5.0625 C 7.90625 -5.351562 7.757812 -5.597656 7.5625 -5.796875 C 7.363281 -5.992188 7.0625 -6.140625 6.65625 -6.234375 C 6.257812 -6.328125 5.707031 -6.375 5 -6.375 L 3.34375 -6.375 L 3.34375 -1.140625 C 3.34375 -0.566406 3.628906 -0.28125 4.203125 -0.28125 L 5.875 -0.28125 C 6.75 -0.28125 7.484375 -0.441406 8.078125 -0.765625 C 8.679688 -1.085938 9.144531 -1.6875 9.46875 -2.5625 L 9.6875 -2.53125 L 9.578125 0 Z M 0.8125 0 "/></g></g><g style="fill:#000000;fill-opacity:1;"><g transform="translate(145.298971, 128.126848)"><path style="stroke:none" d=""/></g></g><g style="fill:#000000;fill-opacity:1;"><g transform="translate(153.210543, 128.126848)"><path style="stroke:none" d="M 0.8125 0 L 0.8125 -0.25 C 1.101562 -0.332031 1.289062 -0.519531 1.375 -0.8125 C 1.457031 -1.113281 1.5 -1.578125 1.5 -2.203125 L 1.5 -9.921875 C 1.5 -10.546875 1.457031 -11.003906 1.375 -11.296875 C 1.289062 -11.585938 1.101562 -11.78125 0.8125 -11.875 L 0.8125 -12.125 L 4.03125 -12.125 L 4.03125 -11.875 C 3.738281 -11.78125 3.550781 -11.585938 3.46875 -11.296875 C 3.382812 -11.003906 3.34375 -10.546875 3.34375 -9.921875 L 3.34375 -1.171875 C 3.34375 -0.597656 3.628906 -0.3125 4.203125 -0.3125 L 5.625 -0.3125 C 6.5 -0.3125 7.1875 -0.441406 7.6875 -0.703125 C 8.195312 -0.972656 8.625 -1.476562 8.96875 -2.21875 L 9.1875 -2.1875 L 9.046875 0 Z M 0.8125 0 "/></g></g><g style="fill:#000000;fill-opacity:1;"><g transform="translate(167.162308, 128.126848)"><path style="stroke:none" d="M 0.8125 0 L 0.8125 -0.25 C 1.101562 -0.332031 1.289062 -0.519531 1.375 -0.8125 C 1.457031 -1.113281 1.5 -1.578125 1.5 -2.203125 L 1.5 -9.921875 C 1.5 -10.546875 1.457031 -11.003906 1.375 -11.296875 C 1.289062 -11.585938 1.101562 -11.78125 0.8125 -11.875 L 0.8125 -12.125 L 4.03125 -12.125 L 4.03125 -11.875 C 3.738281 -11.78125 3.550781 -11.585938 3.46875 -11.296875 C 3.382812 -11.003906 3.34375 -10.546875 3.34375 -9.921875 L 3.34375 -2.203125 C 3.34375 -1.578125 3.382812 -1.113281 3.46875 -0.8125 C 3.550781 -0.519531 3.738281 -0.332031 4.03125 -0.25 L 4.03125 0 Z M 0.8125 0 "/></g></g><g style="fill:#000000;fill-opacity:1;"><g transform="translate(176.458454, 128.126848)"><path style="stroke:none" d="M 9.9375 0.140625 L 1.8125 -10.109375 L 1.8125 -3.234375 C 1.8125 -2.535156 1.859375 -1.984375 1.953125 -1.578125 C 2.046875 -1.171875 2.191406 -0.867188 2.390625 -0.671875 C 2.585938 -0.472656 2.835938 -0.332031 3.140625 -0.25 L 3.140625 0 L 0.8125 0 L 0.8125 -0.25 C 1.101562 -0.332031 1.289062 -0.519531 1.375 -0.8125 C 1.457031 -1.113281 1.5 -1.578125 1.5 -2.203125 L 1.5 -9.921875 C 1.5 -10.546875 1.441406 -11.003906 1.328125 -11.296875 C 1.210938 -11.585938 0.972656 -11.78125 0.609375 -11.875 L 0.609375 -12.125 L 2.5625 -12.125 L 9.828125 -3.015625 L 9.828125 -8.875 C 9.828125 -9.582031 9.78125 -10.140625 9.6875 -10.546875 C 9.601562 -10.953125 9.460938 -11.25 9.265625 -11.4375 C 9.066406 -11.632812 8.816406 -11.78125 8.515625 -11.875 L 8.515625 -12.125 L 10.859375 -12.125 L 10.859375 -11.875 C 10.566406 -11.78125 10.375 -11.585938 10.28125 -11.296875 C 10.195312 -11.003906 10.15625 -10.546875 10.15625 -9.921875 L 10.15625 0.140625 Z M 9.9375 0.140625 "/></g></g><g style="fill:#000000;fill-opacity:1;"><g transform="translate(192.365932, 128.126848)"><path style="stroke:none" d="M -0.359375 0 L -0.359375 -0.25 C -0.0976562 -0.332031 0.148438 -0.503906 0.390625 -0.765625 C 0.628906 -1.035156 0.863281 -1.460938 1.09375 -2.046875 L 4.328125 -10.078125 C 4.453125 -10.398438 4.441406 -10.710938 4.296875 -11.015625 L 4.0625 -11.5 L 5.765625 -12.25 L 10.0625 -2.03125 C 10.300781 -1.457031 10.53125 -1.035156 10.75 -0.765625 C 10.976562 -0.503906 11.191406 -0.332031 11.390625 -0.25 L 11.390625 0 L 8.234375 0 L 8.234375 -0.25 C 8.523438 -0.332031 8.632812 -0.503906 8.5625 -0.765625 C 8.488281 -1.035156 8.328125 -1.457031 8.078125 -2.03125 L 7.046875 -4.515625 L 2.421875 -4.515625 L 1.421875 -2.046875 C 1.191406 -1.460938 1.097656 -1.03125 1.140625 -0.75 C 1.191406 -0.476562 1.359375 -0.3125 1.640625 -0.25 L 1.640625 0 Z M 2.53125 -4.796875 L 6.921875 -4.796875 L 4.6875 -10.140625 Z M 2.53125 -4.796875 "/></g></g><g style="fill:#000000;fill-opacity:1;"><g transform="translate(207.944569, 128.126848)"><path style="stroke:none" d="M 9.9375 0.140625 L 1.8125 -10.109375 L 1.8125 -3.234375 C 1.8125 -2.535156 1.859375 -1.984375 1.953125 -1.578125 C 2.046875 -1.171875 2.191406 -0.867188 2.390625 -0.671875 C 2.585938 -0.472656 2.835938 -0.332031 3.140625 -0.25 L 3.140625 0 L 0.8125 0 L 0.8125 -0.25 C 1.101562 -0.332031 1.289062 -0.519531 1.375 -0.8125 C 1.457031 -1.113281 1.5 -1.578125 1.5 -2.203125 L 1.5 -9.921875 C 1.5 -10.546875 1.441406 -11.003906 1.328125 -11.296875 C 1.210938 -11.585938 0.972656 -11.78125 0.609375 -11.875 L 0.609375 -12.125 L 2.5625 -12.125 L 9.828125 -3.015625 L 9.828125 -8.875 C 9.828125 -9.582031 9.78125 -10.140625 9.6875 -10.546875 C 9.601562 -10.953125 9.460938 -11.25 9.265625 -11.4375 C 9.066406 -11.632812 8.816406 -11.78125 8.515625 -11.875 L 8.515625 -12.125 L 10.859375 -12.125 L 10.859375 -11.875 C 10.566406 -11.78125 10.375 -11.585938 10.28125 -11.296875 C 10.195312 -11.003906 10.15625 -10.546875 10.15625 -9.921875 L 10.15625 0.140625 Z M 9.9375 0.140625 "/></g></g><g style="fill:#000000;fill-opacity:1;"><g transform="translate(223.852047, 128.126848)"><path style="stroke:none" d="M 7.46875 0.171875 C 6.132812 0.171875 4.976562 -0.0859375 4 -0.609375 C 3.03125 -1.128906 2.273438 -1.859375 1.734375 -2.796875 C 1.203125 -3.742188 0.9375 -4.847656 0.9375 -6.109375 C 0.9375 -6.941406 1.09375 -7.726562 1.40625 -8.46875 C 1.71875 -9.207031 2.15625 -9.859375 2.71875 -10.421875 C 3.289062 -10.984375 3.976562 -11.425781 4.78125 -11.75 C 5.582031 -12.070312 6.46875 -12.234375 7.4375 -12.234375 C 7.800781 -12.234375 8.21875 -12.203125 8.6875 -12.140625 C 9.164062 -12.085938 9.628906 -12 10.078125 -11.875 C 10.523438 -11.757812 10.898438 -11.597656 11.203125 -11.390625 L 11.265625 -9.109375 L 11.0625 -9.046875 C 10.832031 -9.648438 10.488281 -10.160156 10.03125 -10.578125 C 9.582031 -11.003906 9.078125 -11.332031 8.515625 -11.5625 C 7.953125 -11.789062 7.378906 -11.90625 6.796875 -11.90625 C 6.046875 -11.90625 5.363281 -11.734375 4.75 -11.390625 C 4.144531 -11.054688 3.660156 -10.546875 3.296875 -9.859375 C 2.941406 -9.171875 2.757812 -8.300781 2.75 -7.25 C 2.738281 -6.4375 2.847656 -5.613281 3.078125 -4.78125 C 3.316406 -3.957031 3.664062 -3.203125 4.125 -2.515625 C 4.582031 -1.828125 5.140625 -1.273438 5.796875 -0.859375 C 6.453125 -0.453125 7.195312 -0.25 8.03125 -0.25 C 8.570312 -0.25 9.070312 -0.359375 9.53125 -0.578125 C 9.988281 -0.804688 10.328125 -1.132812 10.546875 -1.5625 L 10.546875 -3.140625 C 10.546875 -3.816406 10.488281 -4.296875 10.375 -4.578125 C 10.257812 -4.867188 10.015625 -5.066406 9.640625 -5.171875 L 9.640625 -5.421875 L 12.328125 -5.421875 L 12.328125 -2.234375 C 11.898438 -1.671875 11.394531 -1.210938 10.8125 -0.859375 C 10.238281 -0.503906 9.65625 -0.242188 9.0625 -0.078125 C 8.476562 0.0859375 7.945312 0.171875 7.46875 0.171875 Z M 7.46875 0.171875 "/></g></g></g></svg>